<?xml version="1.0" standalone="no"?>
<!DOCTYPE svg PUBLIC "-//W3C//DTD SVG 20010904//EN"
 "http://www.w3.org/TR/2001/REC-SVG-20010904/DTD/svg10.dtd">
<svg version="1.0" xmlns="http://www.w3.org/2000/svg"
 width="734.000000pt" height="586.000000pt" viewBox="0 0 734.000000 586.000000"
 preserveAspectRatio="xMidYMid meet">

<g transform="translate(0.000000,586.000000) scale(0.100000,-0.100000)"
fill="#000000" stroke="none">
<path d="M3317 5395 c-593 -75 -1111 -333 -1527 -761 -354 -364 -582 -807
-675 -1308 -33 -183 -49 -402 -40 -566 l8 -135 17 105 c68 419 254 842 510
1165 401 506 957 838 1580 944 539 92 1087 8 1580 -239 378 -191 731 -503 968
-858 182 -272 319 -599 378 -904 42 -219 42 -219 43 9 1 136 -4 254 -14 330
-52 406 -187 769 -410 1103 -401 599 -1029 997 -1745 1106 -145 22 -531 27
-673 9z"/>
<path d="M3500 4126 c-156 -44 -281 -147 -355 -295 -25 -48 -29 -52 -54 -47
-57 14 -429 18 -547 6 -129 -13 -337 -45 -395 -60 l-36 -10 -7 -217 c-3 -120
-13 -441 -21 -713 -8 -272 -17 -567 -21 -654 l-6 -160 40 32 c63 51 181 101
288 124 129 28 392 29 569 4 232 -33 628 -127 680 -160 16 -11 28 -10 71 4 99
34 374 101 518 125 433 73 757 42 952 -91 35 -24 64 -38 64 -31 0 6 -11 365
-25 797 -14 432 -25 817 -25 857 l0 71 -47 11 c-96 22 -294 50 -439 62 -146
12 -482 8 -516 -6 -13 -5 -24 8 -54 67 -67 134 -204 243 -354 283 -66 18 -218
18 -280 1z m260 -119 c19 -6 39 -15 45 -19 5 -4 16 -8 25 -8 8 0 29 -12 45
-26 17 -14 41 -32 55 -41 14 -8 41 -37 60 -65 19 -28 43 -59 52 -69 16 -17 16
-19 -15 -27 -143 -41 -296 -118 -365 -182 l-34 -31 -40 36 c-76 69 -177 124
-333 179 -16 6 -17 9 -5 16 8 6 12 10 8 10 -19 0 58 103 98 132 24 17 44 35
44 38 0 15 118 59 180 68 70 11 124 7 180 -11z m-695 -257 c201 -29 393 -106
495 -198 l55 -49 43 37 c87 77 262 150 438 184 200 38 497 43 762 14 92 -10
103 -13 106 -32 3 -12 12 -295 21 -631 8 -335 19 -677 22 -760 l6 -150 -37 33
c-96 84 -224 122 -436 129 -170 6 -301 -8 -510 -53 -99 -21 -309 -79 -362 -99
-16 -6 -18 2 -20 86 l-2 94 -3 -93 c-3 -84 -6 -93 -21 -87 -57 22 -278 80
-402 105 -197 40 -348 54 -499 47 -187 -8 -323 -50 -424 -130 l-38 -30 5 94
c3 52 8 186 11 299 3 113 8 282 11 375 2 94 9 306 14 473 5 167 12 307 14 311
6 9 140 29 276 41 112 10 375 4 475 -10z"/>
<path d="M3634 2630 c0 -85 2 -120 3 -77 2 42 2 112 0 155 -1 42 -3 7 -3 -78z"/>
<path d="M535 2716 c-50 -50 -40 -162 35 -387 110 -333 315 -707 556 -1019
111 -144 405 -439 544 -546 521 -403 1129 -648 1763 -709 l67 -7 0 74 c0 255
-83 543 -207 716 -104 147 -219 235 -528 407 -363 202 -541 330 -725 521 -115
120 -190 222 -249 340 -44 87 -47 87 -76 -26 -25 -92 -23 -251 4 -355 45 -171
144 -335 305 -502 54 -57 95 -103 90 -103 -30 0 -205 55 -284 89 -444 191
-781 572 -905 1021 -54 194 -78 266 -108 324 -76 144 -218 226 -282 162z"/>
<path d="M6623 2710 c-60 -35 -120 -105 -158 -185 -14 -30 -46 -128 -70 -218
-25 -90 -57 -192 -71 -227 -144 -356 -413 -649 -755 -824 -97 -49 -273 -114
-359 -131 -35 -7 -34 -6 46 77 189 195 283 351 329 548 28 121 17 294 -25 405
l-11 30 -42 -80 c-77 -146 -165 -261 -293 -386 -172 -166 -350 -291 -654 -459
-315 -174 -432 -260 -533 -392 -135 -176 -210 -408 -225 -692 l-7 -128 70 6
c39 4 140 18 225 32 876 144 1668 636 2180 1354 243 340 476 843 519 1120 17
108 -8 168 -74 176 -32 4 -51 -1 -92 -26z"/>
</g>
</svg>
